{"title":"Drake - Hotline Bling [Music Video] 720p [Sbyky]","uid":12688005,"size":40919026,"categoryP":"video","categoryS":"music_videos","magnet":"?xt=urn:btih:f77225379a2133d04d56a758f382222f798360c7&amp;dn=Drake+-+Hotline+Bling+%5BMusic+Video%5D+720p+%5BSbyky%5D&amp;tr=udp%3A%2F%2Ftracker.leechers-paradise.org%3A6969&amp;tr=udp%3A%2F%2Fzer0day.ch%3A1337&amp;tr=udp%3A%2F%2Fopen.demonii.com%3A1337&amp;tr=udp%3A%2F%2Ftracker.coppersurfer.tk%3A6969&amp;tr=udp%3A%2F%2Fexodus.desync.com%3A6969","seeders":1,"leechers":0,"uploader":"Sbyky","files":1,"time":1446631308,"description":"General\r\nComplete name                            : Drake - Hotline Bling [Music Video] 720p [Sbyky].mp4\r\nFormat                                   : MPEG-4\r\nFormat profile                           : Base Media\r\nCodec ID                                 : isom\r\nFile size                                : 39.0 MiB\r\nDuration                                 : 4mn 55s\r\nOverall bit rate mode                    : Variable\r\nOverall bit rate                         : 1 108 Kbps\r\nEncoded date                             : UTC 2015-10-27 06:18:51\r\nTagged date                              : UTC 2015-10-27 06:18:51\r\n\r\nVideo\r\nID                                       : 1\r\nFormat                                   : AVC\r\nFormat/Info                              : Advanced Video Codec\r\nFormat profile                           :   \r\nFormat settings, CABAC                   : Yes\r\nFormat settings, ReFrames                : 3 frames\r\nCodec ID                                 : avc1\r\nCodec ID/Info                            : Advanced Video Coding\r\nDuration                                 : 4mn 55s\r\nBit rate                                 : 978 Kbps\r\nWidth                                    : 1 280 pixels\r\nHeight                                   : 720 pixels\r\nDisplay aspect ratio                     : 16:9\r\nFrame rate mode                          : Variable\r\nFrame rate                               : 23.976 fps\r\nMinimum frame rate                       : 23.974 fps\r\nMaximum frame rate                       : 23.981 fps\r\nColor space                              : YUV\r\nChroma subsampling                       : 4:2:0\r\nBit depth                                : 8 bits\r\nScan type                                : Progressive\r\nBits/(Pixel*Frame)                       : 0.044\r\nStream size                              : 34.5 MiB (88%)\r\nEncoded date                             : UTC 2015-10-27 06:18:51\r\nTagged date                              : UTC 2015-10-27 06:18:51\r\n\r\nAudio\r\nID                                       : 2\r\nFormat                                   : AAC\r\nFormat/Info                              : Advanced Audio Codec\r\nFormat profile                           : LC\r\nCodec ID                                 : 40\r\nDuration                                 : 4mn 55s\r\nBit rate mode                            : Variable\r\nBit rate                                 : 126 Kbps\r\nChannel(s)                               : 2 channels\r\nChannel positions                        : Front: L R\r\nSampling rate                            : 44.1 KHz\r\nCompression mode                         : Lossy\r\nStream size                              : 4.43 MiB (11%)\r\nEncoded date                             : UTC 2015-10-27 06:18:06\r\nTagged date                              : UTC 2015-10-27 06:18:06\r\n\r\nShared By Sbyky\r\n[IMG]http://yuq.me/users/18/139/0aq32UMZvX.gif[/IMG]\r\n[IMG]http://yuq.me/users/18/139/bQg62viaEG.gif[/IMG]","torrent":{"xt":"urn:btih:f77225379a2133d04d56a758f382222f798360c7","amp;dn":"Drake+-+Hotline+Bling+%5BMusic+Video%5D+720p+%5BSbyky%5D","amp;tr":["udp%3A%2F%2Ftracker.leechers-paradise.org%3A6969","udp%3A%2F%2Fzer0day.ch%3A1337","udp%3A%2F%2Fopen.demonii.com%3A1337","udp%3A%2F%2Ftracker.coppersurfer.tk%3A6969","udp%3A%2F%2Fexodus.desync.com%3A6969"],"infoHash":"f77225379a2133d04d56a758f382222f798360c7","infoHashBuffer":{"type":"Buffer","data":[247,114,37,55,154,33,51,208,77,86,167,88,243,130,34,47,121,131,96,199]},"announce":[],"urlList":[]}}